# AST/ASF file generated using VICON BodyLanguage
# -----------------------------------------------
:version 1.10
:name VICON
:units
  mass 1.0
  length 0.45
  angle deg
:documentation
   .ast/.asf automatically generated from VICON data using
   VICON BodyBuilder and BodyLanguage model FoxedUp or BRILLIANT.MOD
:root
   order TX TY TZ RX RY RZ
   axis XYZ
   position 0 0 0  
   orientation 0 0 0 
:bonedata
  begin
     id 1 
     name lhipjoint
     direction 0.710188 -0.616876 0.339259 
     length 2.5669 
     axis 0 0 0  XYZ
  end
  begin
     id 2 
     name lfemur
     direction 0.34202 -0.939693 0  
     length 7.12796  
     axis 0 0 20  XYZ
    dof rx ry rz
    limits (-160.0 20.0)
           (-70.0 70.0)
           (-60.0 70.0)
  end
  begin
     id 3 
     name ltibia
     direction 0.34202 -0.939693 0   
     length 7.58108   
     axis 0 0 20   XYZ
    dof rx
    limits (-10.0 170.0)
  end
  begin
     id 4 
     name lfoot
     direction 0.0669471 -0.183936 0.980656   
     length 2.17365   
     axis -90 7.62852e-016 20   XYZ
    dof rx rz
    limits (-45.0 90.0)
           (-70.0 20.0)
  end
  begin
     id 5 
     name ltoes
     direction 1.53508e-011 -4.21705e-011 1   
     length 1.09427   
     axis -90 7.62852e-016 20   XYZ
    dof rx
    limits (-90.0 20.0)
  end
  begin
     id 6 
     name rhipjoint
     direction -0.700191 -0.625589 0.34405   
     length 2.53115  
     axis 0 0 0  XYZ 
  end
  begin
     id 7 
     name rfemur
     direction -0.34202 -0.939693 0   
     length 7.33006   
     axis 0 0 -20   XYZ
    dof rx ry rz
    limits (-160.0 20.0)
           (-70.0 70.0)
           (-70.0 60.0)
  end
  begin
     id 8 
     name rtibia
     direction -0.34202 -0.939693 0   
     length 7.64926   
     axis 0 0 -20   XYZ
    dof rx
    limits (-10.0 170.0)
 end
 begin
     id 9 
     name rfoot
     direction -0.0688927 -0.189281 0.979503   
     length 2.20493  
     axis -90 -7.62852e-016 -20   XYZ
    dof rx rz
    limits (-45.0 90.0)
           (-20.0 70.0)
  end
  begin
     id 10 
     name rtoes
     direction -1.53567e-011 -4.21933e-011 1   
     length 1.10919   
     axis -90 -7.62852e-016 -20   XYZ
    dof rx
    limits (-90.0 20.0)
  end
  begin
     id 11 
     name lowerback
     direction -0.0167868 0.989873 -0.140959   
     length 2.14596   
     axis 0 0 0   XYZ
    dof rx ry rz
    limits (-20.0 45.0)
           (-30.0 30.0)
           (-30.0 30.0)
  end
  begin
     id 12 
     name upperback
     direction 0.0129109 0.998033 0.0613525   
     length 2.10457   
     axis 0 0 0   XYZ
    dof rx ry rz
    limits (-20.0 45.0)
           (-30.0 30.0)
           (-30.0 30.0)
  end
  begin
     id 13 
     name thorax
     direction 0.0177047 0.991119 0.131797   
     length 2.17652   
     axis 0 0 0   XYZ
    dof rx ry rz
    limits (-20.0 45.0)
           (-30.0 30.0)
           (-30.0 30.0)
  end
  begin
     id 14 
     name lowerneck
     direction -0.0336893 0.997548 0.0613464   
     length 1.8912   
     axis 0 0 0   XYZ
    dof rx ry rz
    limits (-20.0 45.0)
           (-30.0 30.0)
           (-30.0 30.0)
  end
  begin
     id 15 
     name upperneck
     direction 0.0435909 0.997179 -0.0611028   
     length 1.8829   
     axis 0 0 0   XYZ
    dof rx ry rz
    limits (-20.0 45.0)
           (-30.0 30.0)
           (-30.0 30.0)
  end
  begin
     id 16
     name head
     direction 0.0175076 0.999444 -0.0283782  
     length 1.93197  
     axis 0 0 0   XYZ
    dof rx ry rz
    limits (-20.0 45.0)
           (-30.0 30.0)
           (-30.0 30.0)
  end
  begin
     id 17 
     name lclavicle
     direction 0.919164 0.389875 0.0559876  
     length 3.60004  
     axis 0 0 0   XYZ
    dof ry rz
    limits (-20.0 10.0)
           (0.0 20.0)
  end
  begin
     id 18 
     name lhumerus
     direction 1 -4.48958e-011 6.89191e-027   
     length 5.43301   
     axis 180 -30 -90   XYZ
    dof rx ry rz
    limits (-60.0 90.0)
           (-90.0 90.0)
           (-90.0 90.0)
  end
  begin
     id 19
     name lradius
     direction 1 -4.4897e-011 3.24727e-027   
     length 3.15936   
     axis 180 -30 -90   XYZ
    dof rx
    limits (-10.0 170.0)
  end
  begin
     id 20
     name lwrist
     direction 1 -4.4897e-011 9.00228e-027   
     length 1.57968   
     axis -6.29373e-015 90 90   XYZ
    dof ry
    limits (-180.0 0.0)
 end
  begin
     id 21 
     name lhand
     direction 1 -4.48968e-011 1.80042e-026   
     length 0.712827   
     axis -1.14882e-014 90 90   XYZ
    dof rx rz
    limits (-90.0 90.0)
           (-45.0 45.0)
  end
  begin
     id 22 
     name lfingers
     direction 1 -4.49019e-011 3.60267e-026   
     length 0.574699   
     axis -2.29769e-014 90 90   XYZ
    dof rx
    limits (0.0 90.0)
  end
  begin
     id 23
     name lthumb
     direction 0.707107 -6.3498e-011 0.707107   
     length 0.825157   
     axis -90 45 5.37419e-014   XYZ
    dof rx rz
    limits (-45.0 45.0)
           (-45.0 45.0)
  end
  begin
     id 24 
     name rclavicle
     direction -0.890334 0.455305 -0.00132111   
     length 3.51494  
     axis 0 0 0   XYZ 
    dof ry rz
    limits (-10.0 20.0)
           (-20.0 0.0)
  end
  begin
     id 25 
     name rhumerus
     direction -1 -4.48967e-011 5.07175e-028  
     length 5.34194   
     axis 180 30 90   XYZ
    dof rx ry rz
    limits (-90.0 60.0)
           (-90.0 90.0)
           (-90.0 90.0)
  end
  begin
     id 26 
     name rradius
     direction -1 -4.48955e-011 3.30467e-027   
     length 3.19351   
     axis 180 30 90   XYZ
    dof rx
    limits (-10.0 170.0)
  end
  begin
     id 27 
     name rwrist
     direction -1 -4.48968e-011 9.00208e-027   
     length 1.59676   
     axis -6.29373e-015 -90 -90   XYZ
    dof ry
    limits (-180.0 0.0)
  end
  begin
     id 28
     name rhand
     direction -1 -4.49e-011 1.80099e-026   
     length 0.743862   
     axis -1.14882e-014 -90 -90   XYZ
    dof rx rz
    limits (-90.0 90.0)
           (-45.0 45.0)
  end
  begin
     id 29
     name rfingers
     direction -1 -4.49009e-011 3.6023e-026   
     length 0.599721   
     axis -2.29769e-014 -90 -90   XYZ
    dof rx
    limits (0.0 90.0)
  end
  begin
     id 30
     name rthumb
     direction -0.707107 -6.35025e-011 0.707107   
     length 0.861083   
     axis -90 -45 -5.37419e-014   XYZ
    dof rx rz
    limits (-45.0 45.0)
           (-45.0 45.0)
  end
:hierarchy
  begin
    root lhipjoint rhipjoint lowerback
    lhipjoint lfemur
    lfemur ltibia
    ltibia lfoot
    lfoot ltoes
    rhipjoint rfemur
    rfemur rtibia
    rtibia rfoot
    rfoot rtoes
    lowerback upperback
    upperback thorax
    thorax lowerneck lclavicle rclavicle
    lowerneck upperneck
    upperneck head
    lclavicle lhumerus
    lhumerus lradius
    lradius lwrist
    lwrist lhand lthumb
    lhand lfingers
    rclavicle rhumerus
    rhumerus rradius
    rradius rwrist
    rwrist rhand rthumb
    rhand rfingers
  end

#!OML:ASF H:\Martial Arts Walks\Project 1\Capture day 1\Session 1\male.ASF
:FULLY-SPECIFIED
:DEGREES
230
root -8.47989 11.2439 -35.5391 0.198836 74.9867 -7.29181
lowerback 19.5548 -2.68951 -6.44273
upperback -1.53566 -4.67648 3.28623
thorax -11.9281 -1.61639 8.74504
lowerneck 6.49805 -16.5971 -16.6693
upperneck 3.36404 -24.033 19.8014
head 4.42529 -12.1665 7.34249
rclavicle -1.78037e-014 1.29707e-014
rhumerus -15.2818 -3.55426 -50.8898
rradius 118.219
rwrist -12.7237
rhand -26.0389 -37.4949
rfingers 7.12502
rthumb 0.50813 -67.474
lclavicle -1.78037e-014 1.29707e-014
lhumerus -4.70919 -52.7115 85.3015
lradius 109.967
lwrist 10.7635
lhand -25.3805 7.55133
lfingers 7.12502
lthumb 1.14408 37.528
rfemur -68.0029 -24.8687 -2.41476
rtibia 97.6699
rfoot -35.8221 11.8949
rtoes -36.8307
lfemur -55.5653 38.9204 5.87502
ltibia 104.157
lfoot -38.3323 7.70674
ltoes -19.3882
231
root -8.48241 11.2305 -35.5305 0.202297 75.0661 -7.22313
lowerback 19.6507 -2.70432 -6.47946
upperback -1.52983 -4.7101 3.28386
thorax -11.9675 -1.62672 8.7816
lowerneck 6.48114 -16.59 -16.7027
upperneck 3.32182 -24.0199 19.8106
head 4.41826 -12.1607 7.35055
rclavicle -6.3462e-014 2.60408e-014
rhumerus -15.315 -3.59014 -50.8521
rradius 117.898
rwrist -12.7505
rhand -25.9369 -37.9998
rfingers 7.12502
rthumb 0.60671 -67.9787
lclavicle -6.3462e-014 2.60408e-014
lhumerus -4.81416 -52.6663 85.4582
lradius 109.902
lwrist 10.5834
lhand -25.1655 7.48618
lfingers 7.12502
lthumb 1.3517 37.4616
rfemur -67.993 -24.8797 -2.47965
rtibia 97.8526
rfoot -35.8784 11.8153
rtoes -36.9067
lfemur -55.5922 38.9134 5.93187
ltibia 104.232
lfoot -38.3292 7.7215
ltoes -19.5325
232
root -8.48558 11.2138 -35.5219 0.720788 75.1815 -6.68243
lowerback 19.7024 -2.69802 -6.57502
upperback -1.57537 -4.74342 3.17902
thorax -12.0456 -1.63388 8.73422
lowerneck 6.60108 -16.6369 -16.5761
upperneck 3.26057 -24.0802 19.8034
head 4.37517 -12.1968 7.33828
rclavicle -3.87506e-014 -1.76918e-014
rhumerus -15.6677 -3.69509 -50.8777
rradius 117.7
rwrist -12.9166
rhand -26.3791 -37.7217
rfingers 7.12502
rthumb 0.179572 -67.7014
lclavicle -3.87506e-014 -1.76918e-014
lhumerus -5.04172 -52.8223 85.6252
lradius 109.799
lwrist 10.3321
lhand -25.2448 7.20854
lfingers 7.12502
lthumb 1.27516 37.1845
rfemur -68.1061 -25.0359 -2.62829
rtibia 98.0634
rfoot -35.9328 11.6573
rtoes -37.033
lfemur -55.7327 38.8357 5.78814
ltibia 104.308
lfoot -38.314 7.6808
ltoes -19.4898
233
root -8.48829 11.2058 -35.5135 0.596106 75.2139 -6.75747
lowerback 19.7917 -2.71031 -6.62998
upperback -1.5622 -4.77084 3.22942
thorax -12.0678 -1.63906 8.83912
lowerneck 6.5527 -16.6467 -16.6158
upperneck 3.13614 -24.0712 19.7347
head 4.33956 -12.194 7.32248
rclavicle 3.53712e-014 1.50579e-014
rhumerus -15.6889 -3.66265 -50.8191
rradius 117.478
rwrist -13.291
rhand -25.6418 -38.6135
rfingers 7.12502
rthumb 0.891748 -68.5914
lclavicle 3.53712e-014 1.50579e-014
lhumerus -5.17353 -52.6357 85.8592
lradius 109.761
lwrist 10.1281
lhand -24.9814 7.21946
lfingers 7.12502
lthumb 1.5295 37.1937
rfemur -68.1 -24.9724 -2.61074
rtibia 98.204
rfoot -35.9854 11.3615
rtoes -37.1848
lfemur -55.7018 38.8448 5.89651
ltibia 104.35
lfoot -38.3256 7.6746
ltoes -19.5805
234
root -8.49079 11.1976 -35.5041 0.843783 75.2364 -6.50024
lowerback 19.8377 -2.69279 -6.75803
upperback -1.57532 -4.78233 3.22705
thorax -12.0977 -1.63331 8.91927
lowerneck 6.49685 -16.6346 -16.6197
upperneck 3.14171 -24.0494 19.7326
head 4.34646 -12.1802 7.31985
rclavicle -5.70139e-014 -3.23025e-014
rhumerus -15.7883 -3.67558 -50.7602
rradius 117.281
rwrist -13.7101
rhand -25.419 -39.0722
rfingers 7.12502
rthumb 1.10693 -69.0491
lclavicle -5.70139e-014 -3.23025e-014
lhumerus -5.38122 -52.6046 86.0898
lradius 109.693
lwrist 9.89805
lhand -24.8836 7.16184
lfingers 7.12502
lthumb 1.62397 37.1354
rfemur -68.1838 -24.9097 -2.66415
rtibia 98.3655
rfoot -36.0476 10.9837
rtoes -37.4365
lfemur -55.7108 38.8388 5.89273
ltibia 104.381
lfoot -38.341 7.59745
ltoes -19.5462
235
root -8.49392 11.1865 -35.4976 0.87251 75.266 -6.51161
lowerback 19.8626 -2.70248 -6.78727
upperback -1.5928 -4.80113 3.25359
thorax -12.124 -1.63651 8.97571
lowerneck 6.44977 -16.6433 -16.6294
upperneck 3.04897 -24.0449 19.7186
head 4.32474 -12.178 7.31533
rclavicle 4.53478e-014 -1.3418e-015
rhumerus -15.7909 -3.68742 -50.7108
rradius 117.019
rwrist -14.2161
rhand -25.326 -38.9717
rfingers 7.12502
rthumb 1.1967 -68.9481
lclavicle 4.53478e-014 -1.3418e-015
lhumerus -5.56656 -52.5254 86.3278
lradius 109.622
lwrist 9.69853
lhand -25.0514 6.91686
lfingers 7.12502
lthumb 1.46194 36.8916
rfemur -68.2893 -24.8682 -2.63586
rtibia 98.4982
rfoot -36.1111 10.5065
rtoes -37.8937
lfemur -55.8296 38.8577 5.90973
ltibia 104.439
lfoot -38.2981 7.63192
ltoes -19.5457
236
root -8.49655 11.1769 -35.4917 1.23882 75.3238 -6.19107
lowerback 19.8688 -2.69894 -6.85738
upperback -1.6219 -4.81869 3.22829
thorax -12.1548 -1.6382 8.99486
lowerneck 6.40297 -16.6567 -16.6237
upperneck 3.06502 -24.0628 19.7547
head 4.34462 -12.1834 7.31732
rclavicle 1.86361e-015 1.32689e-014
rhumerus -15.8942 -3.73738 -50.6655
rradius 116.767
rwrist -14.7424
rhand -25.2391 -39.0039
rfingers 7.12502
rthumb 1.28068 -68.9798
lclavicle 1.86361e-015 1.32689e-014
lhumerus -5.76771 -52.5623 86.5355
lradius 109.536
lwrist 9.51577
lhand -25.061 6.82349
lfingers 7.12502
lthumb 1.45262 36.7983
rfemur -68.4284 -24.884 -2.70524
rtibia 98.6341
rfoot -36.1285 10.1888
rtoes -38.0746
lfemur -55.9859 38.7729 5.79658
ltibia 104.492
lfoot -38.2721 7.56474
ltoes -19.4525
237
root -8.49862 11.1737 -35.4858 0.999066 75.3561 -6.4006
lowerback 19.9841 -2.73241 -6.81357
upperback -1.62507 -4.8561 3.25153
thorax -12.2187 -1.65223 9.0184
lowerneck 6.36796 -16.6382 -16.6748
upperneck 3.01248 -24.034 19.7865
head 4.33981 -12.1692 7.33501
rclavicle 5.94615e-014 -1.43622e-014
rhumerus -15.8679 -3.69105 -50.6794
rradius 116.568
rwrist -15.197
rhand -24.8852 -39.3459
rfingers 7.12502
rthumb 1.62243 -69.3195
lclavicle 5.94615e-014 -1.43622e-014
lhumerus -6.00953 -52.4393 86.7092
lradius 109.575
lwrist 9.46297
lhand -24.9707 6.94475
lfingers 7.12502
lthumb 1.53982 36.9189
rfemur -68.39 -24.8191 -2.67365
rtibia 98.7018
rfoot -36.0823 10.3085
rtoes -37.8338
lfemur -55.9726 38.7575 5.8983
ltibia 104.518
lfoot -38.2733 7.61701
ltoes -19.5342
238
root -8.50098 11.1667 -35.4823 1.00874 75.3931 -6.43642
lowerback 20.0237 -2.75382 -6.76851
upperback -1.64656 -4.87587 3.25771
thorax -12.2655 -1.6601 9.01063
lowerneck 6.36175 -16.6495 -16.6602
upperneck 2.875 -24.0317 19.7929
head 4.29834 -12.1712 7.33877
rclavicle 4.7522e-014 -3.01656e-014
rhumerus -15.8986 -3.67307 -50.6784
rradius 116.388
rwrist -15.6847
rhand -24.7854 -39.3744
rfingers 7.12502
rthumb 1.71882 -69.3472
lclavicle 4.7522e-014 -3.01656e-014
lhumerus -6.19073 -52.403 86.8875
lradius 109.571
lwrist 9.4681
lhand -25.0177 6.95357
lfingers 7.12502
lthumb 1.49443 36.9281
rfemur -68.4782 -24.8114 -2.6676
rtibia 98.7815
rfoot -36.0509 10.323
rtoes -37.7128
lfemur -56.1105 38.7288 5.87696
ltibia 104.564
lfoot -38.2368 7.67244
ltoes -19.4787
239
root -8.5024 11.1632 -35.4768 1.1304 75.4246 -6.31835
lowerback 20.08 -2.74926 -6.78421
upperback -1.64833 -4.87838 3.24655
thorax -12.2993 -1.65786 9.01351
lowerneck 6.30019 -16.6519 -16.6782
upperneck 2.90787 -24.0396 19.8704
head 4.33236 -12.1705 7.35527
rclavicle 2.90101e-014 2.37051e-014
rhumerus -16.0032 -3.66331 -50.6794
rradius 116.227
rwrist -16.1925
rhand -24.6958 -39.5913
rfingers 7.12502
rthumb 1.80541 -69.5634
lclavicle 2.90101e-014 2.37051e-014
lhumerus -6.3622 -52.4373 87.0207
lradius 109.561
lwrist 9.61584
lhand -25.1766 6.75834
lfingers 7.12502
lthumb 1.34099 36.7339
rfemur -68.5101 -24.7723 -2.70991
rtibia 98.8484
rfoot -36.0509 10.2572
rtoes -37.7117
lfemur -56.1345 38.6555 5.8714
ltibia 104.571
lfoot -38.2247 7.64763
ltoes -19.3872
240
root -8.50461 11.1606 -35.4746 1.1752 75.4555 -6.3337
lowerback 20.1057 -2.7684 -6.73309
upperback -1.67187 -4.89351 3.24783
thorax -12.3424 -1.66451 8.99413
lowerneck 6.31105 -16.6602 -16.6674
upperneck 2.82316 -24.0426 19.8907
head 4.30726 -12.1746 7.36299
rclavicle -3.07495e-014 2.03754e-014
rhumerus -16.0621 -3.60671 -50.6837
rradius 116.121
rwrist -16.5851
rhand -24.6044 -39.9091
rfingers 7.12502
rthumb 1.89361 -69.8805
lclavicle -3.07495e-014 2.03754e-014
lhumerus -6.53516 -52.4302 87.1793
lradius 109.543
lwrist 9.73014
lhand -25.1889 6.7019
lfingers 7.12502
lthumb 1.32911 36.6775
rfemur -68.5801 -24.7268 -2.70782
rtibia 98.8927
rfoot -36.0399 10.1736
rtoes -37.7256
lfemur -56.2858 38.6148 5.79885
ltibia 104.592
lfoot -38.1402 7.86031
ltoes -19.4658
241
root -8.50698 11.1618 -35.4714 1.25546 75.4743 -6.32788
lowerback 20.1007 -2.75117 -6.69123
upperback -1.69609 -4.86355 3.22861
thorax -12.3786 -1.65107 8.94114
lowerneck 6.39375 -16.678 -16.6128
upperneck 2.68513 -24.0594 19.9531
head 4.25759 -12.1901 7.38473
rclavicle 2.05742e-014 1.62506e-014
rhumerus -16.1985 -3.65438 -50.6861
rradius 116.007
rwrist -16.8052
rhand -24.4846 -39.9305
rfingers 7.12502
rthumb 2.0093 -69.9008
lclavicle 2.05742e-014 1.62506e-014
lhumerus -6.66862 -52.52 87.3218
lradius 109.539
lwrist 9.87226
lhand -25.039 6.79738
lfingers 7.12502
lthumb 1.47387 36.772
rfemur -68.6482 -24.6303 -2.70152
rtibia 98.9162
rfoot -36.0025 10.0755
rtoes -37.6646
lfemur -56.374 38.5457 5.77396
ltibia 104.57
lfoot -38.1222 7.72484
ltoes -19.3608
242
root -8.50867 11.1635 -35.4681 1.23466 75.493 -6.39978
lowerback 20.1283 -2.75833 -6.64739
upperback -1.7048 -4.86281 3.23777
thorax -12.4074 -1.65086 8.92972
lowerneck 6.38998 -16.6892 -16.6094
upperneck 2.6239 -24.0687 19.9834
head 4.24535 -12.1959 7.39313
rclavicle -4.15087e-014 1.38652e-014
rhumerus -16.258 -3.63758 -50.6877
rradius 115.918
rwrist -16.996
rhand -24.5295 -39.8806
rfingers 7.12502
rthumb 1.96598 -69.8513
lclavicle -4.15087e-014 1.38652e-014
lhumerus -6.82025 -52.5133 87.4493
lradius 109.538
lwrist 9.94429
lhand -25.0254 6.81328
lfingers 7.12502
lthumb 1.48706 36.7878
rfemur -68.6926 -24.574 -2.6693
rtibia 98.925
rfoot -35.9399 10.1374
rtoes -37.4887
lfemur -56.4418 38.4777 5.76829
ltibia 104.551
lfoot -38.0016 7.83325
ltoes -19.3045
243
root -8.51043 11.1666 -35.4677 1.26286 75.5055 -6.45261
lowerback 20.1381 -2.75477 -6.57208
upperback -1.72544 -4.84096 3.23592
thorax -12.4473 -1.6425 8.88082
lowerneck 6.39595 -16.7081 -16.5563
upperneck 2.55315 -24.0819 19.98
head 4.21876 -12.204 7.38658
rclavicle 3.2228e-014 2.48481e-015
rhumerus -16.3598 -3.64622 -50.6617
rradius 115.871
rwrist -17.1033
rhand -24.2919 -40.1757
rfingers 7.12502
rthumb 2.19544 -70.1441
lclavicle 3.2228e-014 2.48481e-015
lhumerus -6.94356 -52.5582 87.5789
lradius 109.501
lwrist 9.9536
lhand -24.984 6.73989
lfingers 7.12502
lthumb 1.52703 36.7142
rfemur -68.7872 -24.5143 -2.63129
rtibia 98.9274
rfoot -35.86 10.188
rtoes -37.358
lfemur -56.573 38.4159 5.68448
ltibia 104.529
lfoot -37.9382 7.96258
ltoes -19.5202
244
root -8.51201 11.1694 -35.4659 1.50344 75.5123 -6.25644
lowerback 20.1691 -2.75244 -6.60394
upperback -1.73479 -4.84665 3.24519
thorax -12.4717 -1.64033 8.91546
lowerneck 6.39699 -16.7153 -16.5623
upperneck 2.48603 -24.0839 19.9837
head 4.20018 -12.2069 7.39006
rclavicle -5.7573e-014 1.12313e-014
rhumerus -16.3544 -3.62274 -50.6335
rradius 115.818
rwrist -17.1386
rhand -24.2841 -40.1384
rfingers 7.12502
rthumb 2.20299 -70.1067
lclavicle -5.7573e-014 1.12313e-014
lhumerus -7.05859 -52.5126 87.7056
lradius 109.486
lwrist 9.93317
lhand -24.9559 6.74183
lfingers 7.12502
lthumb 1.55419 36.7159
rfemur -68.8429 -24.4976 -2.65626
rtibia 98.927
rfoot -35.8294 10.1905
rtoes -37.2927
lfemur -56.62 38.3283 5.58974
ltibia 104.492
lfoot -37.9275 8.23508
ltoes -19.7359
